<svg width="1440" height="170" viewBox="0 0 1440 170" fill="none" xmlns="http://www.w3.org/2000/svg">
<rect width="1440" height="170" fill="#EAECE5"/>
<path d="M628.983 67.4211C619.783 67.4211 612.333 75.0843 612.333 84.5264C612.333 93.9685 619.783 101.632 628.983 101.632C638.2 101.632 645.667 93.9685 645.667 84.5264C645.667 75.0843 638.2 67.4211 628.983 67.4211ZM629 98.2106C621.633 98.2106 615.667 92.0869 615.667 84.5264C615.667 76.9659 621.633 70.8422 629 70.8422C636.367 70.8422 642.333 76.9659 642.333 84.5264C642.333 92.0869 636.367 98.2106 629 98.2106Z" fill="#247BA0"/>
<path d="M629.833 75.9736H627.333V86.2368L636.083 91.6249L637.333 89.521L629.833 84.9539V75.9736Z" fill="#247BA0"/>
</svg>

